<svg width="24" height="24" viewBox="0 0 24 24" xmlns="http://www.w3.org/2000/svg"><defs><radialGradient fx="50%" fy="50%" r="48.787%" gradientTransform="matrix(0 1 -.51429 0 .757 0)" id="a"><stop stop-color="#FFCE47" offset="0%"/><stop stop-color="#FCBE50" offset="100%"/></radialGradient></defs><g fill="none" fill-rule="evenodd"><path d="M7.002 13.143a5 5 0 1 1 9.996 0H7.002z" fill="url(#a)"/><path d="M8.88 3.198c-.374-.927-1.765-.366-1.39.562l1.15 2.846c.374.928 1.765.366 1.39-.562L8.88 3.198zm8.186.594c.391-.92-.99-1.506-1.38-.586l-1.2 2.826c-.39.92.99 1.507 1.38.587l1.2-2.827zm4.54 6.088c.928-.374.366-1.765-.562-1.39l-2.846 1.15c-.927.374-.366 1.765.562 1.39l2.846-1.15zM2.792 8.486c-.92-.39-1.506.99-.586 1.38l2.826 1.2c.92.391 1.507-.99.587-1.38l-2.827-1.2z" fill="#FBB556" fill-rule="nonzero"/><rect fill-opacity=".12" fill="#000" x="4" y="13.143" width="16" height="1.191" rx=".596"/><path d="M11.5 16.7v3.929m-2-2.025l1.998-2.483 2.002 2.483" opacity=".5" stroke="#000" stroke-width="1.2" stroke-linecap="round" stroke-linejoin="round"/></g></svg>